<svg width="66" height="42" viewBox="0 0 66 42" fill="none" xmlns="http://www.w3.org/2000/svg">
<path d="M26.046 20.4083C21.365 20.4083 18 16.5893 18 12.1945C18 7.819 21.365 4 26.046 4C29.8434 4 32.7761 6.53321 33.7161 9.83405L29.3359 9.85325C28.7719 8.6826 27.5124 7.87658 26.046 7.87658C23.4329 7.87658 21.741 9.87244 21.741 12.2521C21.741 14.6318 23.3953 16.6277 26.0084 16.6277C27.6063 16.6277 29.1103 15.6489 29.5991 14.2096H25.0121V11.3309H33.9792C34.5432 16.0903 30.9526 20.4083 26.046 20.4083Z" fill="#050505"/>
<path d="M51.2568 12.1945C51.2568 16.5893 47.8918 20.4083 43.2296 20.4083C38.5486 20.4083 35.1836 16.5893 35.1836 12.1945C35.1836 7.819 38.5486 4 43.2296 4C47.8918 4 51.2568 7.819 51.2568 12.1945ZM47.4594 12.1945C47.4594 9.83406 45.6735 7.87658 43.2296 7.87658C40.7669 7.87658 38.981 9.83406 38.981 12.1945C38.981 14.555 40.7669 16.5317 43.2296 16.5317C45.6735 16.5317 47.4594 14.555 47.4594 12.1945Z" fill="#050505"/>
<path d="M26.046 38C21.365 38 18 34.181 18 29.7863C18 25.4107 21.365 21.5917 26.046 21.5917C29.8434 21.5917 32.7761 24.1249 33.7161 27.4258L29.3359 27.445C28.7719 26.2743 27.5124 25.4683 26.046 25.4683C23.4329 25.4683 21.741 27.4642 21.741 29.8438C21.741 32.2235 23.3953 34.2194 26.0084 34.2194C27.6063 34.2194 29.1103 33.2406 29.5991 31.8013H25.0121V28.9227H33.9792C34.5432 33.682 30.9526 38 26.046 38Z" fill="#050505"/>
<path d="M38.4583 37.7121V33.279L33.3073 21.8988H37.3867L40.357 28.9227L43.2896 21.8988H47.3315L42.2369 33.279V37.7121H38.4583Z" fill="#050505"/>
<path d="M48.1596 37.7121V21.918H53.179L57.1268 32.6457L61.0182 21.918H66V37.7121H62.2214V28.4621L58.7811 37.7121H55.4161L51.9383 28.3469V37.7121H48.1596Z" fill="#050505"/>
<path d="M5.64725 4.43801L14.7518 0L9.10453 24.3253L0 28.7634L5.64725 4.43801Z" fill="#050505"/>
<path d="M6.89547 17.6747L16 13.2366L10.3527 37.562L1.24822 42L6.89547 17.6747Z" fill="#050505"/>
</svg>
